<mxfile host="www.draw.io" modified="2019-10-29T03:14:27.503Z" agent="Mozilla/5.0 (Windows NT 6.1; Win64; x64) AppleWebKit/537.36 (KHTML, like Gecko) Chrome/76.0.3809.132 Safari/537.36" etag="bTVPbDlRrkeoe5E9UUbs" version="12.1.8" type="github" pages="1">
  <diagram id="G7ptrgysDkBFTlQIhu0v" name="Page-1">
    <mxGraphModel dx="975" dy="505" grid="1" gridSize="10" guides="1" tooltips="1" connect="1" arrows="1" fold="1" page="1" pageScale="1" pageWidth="827" pageHeight="1169" math="0" shadow="0">
      <root>
        <mxCell id="0"/>
        <mxCell id="1" parent="0"/>
        <mxCell id="4_KpAReZ8NmwnhRcS0Nw-40" value="" style="rounded=0;whiteSpace=wrap;html=1;" vertex="1" parent="1">
          <mxGeometry x="33" y="50" width="760" height="770" as="geometry"/>
        </mxCell>
        <mxCell id="4_KpAReZ8NmwnhRcS0Nw-11" style="edgeStyle=orthogonalEdgeStyle;rounded=0;orthogonalLoop=1;jettySize=auto;html=1;exitX=0.5;exitY=1;exitDx=0;exitDy=0;entryX=0.5;entryY=0;entryDx=0;entryDy=0;" edge="1" parent="1" source="4_KpAReZ8NmwnhRcS0Nw-3" target="4_KpAReZ8NmwnhRcS0Nw-9">
          <mxGeometry relative="1" as="geometry"/>
        </mxCell>
        <mxCell id="4_KpAReZ8NmwnhRcS0Nw-3" value="建设实验局" style="rounded=1;whiteSpace=wrap;html=1;absoluteArcSize=1;arcSize=14;strokeWidth=2;" vertex="1" parent="1">
          <mxGeometry x="290" y="90" width="110" height="40" as="geometry"/>
        </mxCell>
        <mxCell id="4_KpAReZ8NmwnhRcS0Nw-16" style="edgeStyle=orthogonalEdgeStyle;rounded=0;orthogonalLoop=1;jettySize=auto;html=1;exitX=0.5;exitY=1;exitDx=0;exitDy=0;" edge="1" parent="1" source="4_KpAReZ8NmwnhRcS0Nw-4" target="4_KpAReZ8NmwnhRcS0Nw-8">
          <mxGeometry relative="1" as="geometry"/>
        </mxCell>
        <mxCell id="4_KpAReZ8NmwnhRcS0Nw-39" style="edgeStyle=orthogonalEdgeStyle;rounded=0;orthogonalLoop=1;jettySize=auto;html=1;exitX=0;exitY=0.5;exitDx=0;exitDy=0;entryX=1;entryY=0.5;entryDx=0;entryDy=0;" edge="1" parent="1" source="4_KpAReZ8NmwnhRcS0Nw-4" target="4_KpAReZ8NmwnhRcS0Nw-18">
          <mxGeometry relative="1" as="geometry"/>
        </mxCell>
        <mxCell id="4_KpAReZ8NmwnhRcS0Nw-4" value="实施" style="rounded=1;whiteSpace=wrap;html=1;absoluteArcSize=1;arcSize=14;strokeWidth=2;" vertex="1" parent="1">
          <mxGeometry x="290" y="550" width="110" height="40" as="geometry"/>
        </mxCell>
        <mxCell id="4_KpAReZ8NmwnhRcS0Nw-14" style="edgeStyle=orthogonalEdgeStyle;rounded=0;orthogonalLoop=1;jettySize=auto;html=1;exitX=0.5;exitY=1;exitDx=0;exitDy=0;" edge="1" parent="1" source="4_KpAReZ8NmwnhRcS0Nw-5" target="4_KpAReZ8NmwnhRcS0Nw-7">
          <mxGeometry relative="1" as="geometry"/>
        </mxCell>
        <mxCell id="4_KpAReZ8NmwnhRcS0Nw-35" style="edgeStyle=orthogonalEdgeStyle;rounded=0;orthogonalLoop=1;jettySize=auto;html=1;exitX=0;exitY=0.5;exitDx=0;exitDy=0;entryX=1;entryY=0.5;entryDx=0;entryDy=0;" edge="1" parent="1" source="4_KpAReZ8NmwnhRcS0Nw-5" target="4_KpAReZ8NmwnhRcS0Nw-18">
          <mxGeometry relative="1" as="geometry"/>
        </mxCell>
        <mxCell id="4_KpAReZ8NmwnhRcS0Nw-5" value="建设规划" style="rounded=1;whiteSpace=wrap;html=1;absoluteArcSize=1;arcSize=14;strokeWidth=2;" vertex="1" parent="1">
          <mxGeometry x="290" y="390" width="110" height="40" as="geometry"/>
        </mxCell>
        <mxCell id="4_KpAReZ8NmwnhRcS0Nw-13" style="edgeStyle=orthogonalEdgeStyle;rounded=0;orthogonalLoop=1;jettySize=auto;html=1;exitX=0.5;exitY=1;exitDx=0;exitDy=0;entryX=0.5;entryY=0;entryDx=0;entryDy=0;" edge="1" parent="1" source="4_KpAReZ8NmwnhRcS0Nw-6" target="4_KpAReZ8NmwnhRcS0Nw-5">
          <mxGeometry relative="1" as="geometry">
            <Array as="points">
              <mxPoint x="345" y="300"/>
              <mxPoint x="345" y="300"/>
            </Array>
          </mxGeometry>
        </mxCell>
        <mxCell id="4_KpAReZ8NmwnhRcS0Nw-21" value="Pass" style="text;html=1;resizable=0;points=[];align=center;verticalAlign=middle;labelBackgroundColor=#ffffff;" vertex="1" connectable="0" parent="4_KpAReZ8NmwnhRcS0Nw-13">
          <mxGeometry x="0.25" y="2" relative="1" as="geometry">
            <mxPoint as="offset"/>
          </mxGeometry>
        </mxCell>
        <mxCell id="4_KpAReZ8NmwnhRcS0Nw-6" value="立项评审会" style="rounded=1;whiteSpace=wrap;html=1;absoluteArcSize=1;arcSize=14;strokeWidth=2;" vertex="1" parent="1">
          <mxGeometry x="290" y="270" width="110" height="40" as="geometry"/>
        </mxCell>
        <mxCell id="4_KpAReZ8NmwnhRcS0Nw-15" style="edgeStyle=orthogonalEdgeStyle;rounded=0;orthogonalLoop=1;jettySize=auto;html=1;exitX=0.5;exitY=1;exitDx=0;exitDy=0;entryX=0.5;entryY=0;entryDx=0;entryDy=0;" edge="1" parent="1" source="4_KpAReZ8NmwnhRcS0Nw-7" target="4_KpAReZ8NmwnhRcS0Nw-4">
          <mxGeometry relative="1" as="geometry"/>
        </mxCell>
        <mxCell id="4_KpAReZ8NmwnhRcS0Nw-7" value="交付前准备" style="rounded=1;whiteSpace=wrap;html=1;absoluteArcSize=1;arcSize=14;strokeWidth=2;" vertex="1" parent="1">
          <mxGeometry x="290" y="470" width="110" height="40" as="geometry"/>
        </mxCell>
        <mxCell id="4_KpAReZ8NmwnhRcS0Nw-17" style="edgeStyle=orthogonalEdgeStyle;rounded=0;orthogonalLoop=1;jettySize=auto;html=1;exitX=0.5;exitY=1;exitDx=0;exitDy=0;entryX=0.5;entryY=0;entryDx=0;entryDy=0;" edge="1" parent="1" source="4_KpAReZ8NmwnhRcS0Nw-8" target="4_KpAReZ8NmwnhRcS0Nw-10">
          <mxGeometry relative="1" as="geometry"/>
        </mxCell>
        <mxCell id="4_KpAReZ8NmwnhRcS0Nw-38" style="edgeStyle=orthogonalEdgeStyle;rounded=0;orthogonalLoop=1;jettySize=auto;html=1;exitX=0;exitY=0.5;exitDx=0;exitDy=0;entryX=1;entryY=0.5;entryDx=0;entryDy=0;" edge="1" parent="1" source="4_KpAReZ8NmwnhRcS0Nw-8" target="4_KpAReZ8NmwnhRcS0Nw-18">
          <mxGeometry relative="1" as="geometry"/>
        </mxCell>
        <mxCell id="4_KpAReZ8NmwnhRcS0Nw-8" value="跟踪" style="rounded=1;whiteSpace=wrap;html=1;absoluteArcSize=1;arcSize=14;strokeWidth=2;" vertex="1" parent="1">
          <mxGeometry x="290" y="630" width="110" height="40" as="geometry"/>
        </mxCell>
        <mxCell id="4_KpAReZ8NmwnhRcS0Nw-12" style="edgeStyle=orthogonalEdgeStyle;rounded=0;orthogonalLoop=1;jettySize=auto;html=1;exitX=0.5;exitY=1;exitDx=0;exitDy=0;entryX=0.5;entryY=0;entryDx=0;entryDy=0;" edge="1" parent="1" source="4_KpAReZ8NmwnhRcS0Nw-9" target="4_KpAReZ8NmwnhRcS0Nw-6">
          <mxGeometry relative="1" as="geometry"/>
        </mxCell>
        <mxCell id="4_KpAReZ8NmwnhRcS0Nw-9" value="立项" style="rounded=1;whiteSpace=wrap;html=1;absoluteArcSize=1;arcSize=14;strokeWidth=2;" vertex="1" parent="1">
          <mxGeometry x="290" y="180" width="110" height="40" as="geometry"/>
        </mxCell>
        <mxCell id="4_KpAReZ8NmwnhRcS0Nw-10" value="结项" style="rounded=1;whiteSpace=wrap;html=1;absoluteArcSize=1;arcSize=14;strokeWidth=2;" vertex="1" parent="1">
          <mxGeometry x="290" y="730" width="110" height="40" as="geometry"/>
        </mxCell>
        <mxCell id="4_KpAReZ8NmwnhRcS0Nw-26" style="edgeStyle=orthogonalEdgeStyle;rounded=0;orthogonalLoop=1;jettySize=auto;html=1;exitX=0.5;exitY=1;exitDx=0;exitDy=0;entryX=0.5;entryY=0;entryDx=0;entryDy=0;" edge="1" parent="1" source="4_KpAReZ8NmwnhRcS0Nw-18" target="4_KpAReZ8NmwnhRcS0Nw-19">
          <mxGeometry relative="1" as="geometry"/>
        </mxCell>
        <mxCell id="4_KpAReZ8NmwnhRcS0Nw-18" value="ECR" style="rounded=1;whiteSpace=wrap;html=1;absoluteArcSize=1;arcSize=14;strokeWidth=2;" vertex="1" parent="1">
          <mxGeometry x="100" y="390" width="110" height="40" as="geometry"/>
        </mxCell>
        <mxCell id="4_KpAReZ8NmwnhRcS0Nw-27" style="edgeStyle=orthogonalEdgeStyle;rounded=0;orthogonalLoop=1;jettySize=auto;html=1;exitX=0.5;exitY=1;exitDx=0;exitDy=0;entryX=0.5;entryY=0;entryDx=0;entryDy=0;" edge="1" parent="1" source="4_KpAReZ8NmwnhRcS0Nw-19" target="4_KpAReZ8NmwnhRcS0Nw-20">
          <mxGeometry relative="1" as="geometry"/>
        </mxCell>
        <mxCell id="4_KpAReZ8NmwnhRcS0Nw-28" value="Pass" style="text;html=1;resizable=0;points=[];align=center;verticalAlign=middle;labelBackgroundColor=#ffffff;" vertex="1" connectable="0" parent="4_KpAReZ8NmwnhRcS0Nw-27">
          <mxGeometry x="0.2" y="-1" relative="1" as="geometry">
            <mxPoint as="offset"/>
          </mxGeometry>
        </mxCell>
        <mxCell id="4_KpAReZ8NmwnhRcS0Nw-19" value="变更评审会" style="rounded=1;whiteSpace=wrap;html=1;absoluteArcSize=1;arcSize=14;strokeWidth=2;" vertex="1" parent="1">
          <mxGeometry x="100" y="490" width="110" height="40" as="geometry"/>
        </mxCell>
        <mxCell id="4_KpAReZ8NmwnhRcS0Nw-20" value="ECN" style="rounded=1;whiteSpace=wrap;html=1;absoluteArcSize=1;arcSize=14;strokeWidth=2;" vertex="1" parent="1">
          <mxGeometry x="100" y="620" width="110" height="40" as="geometry"/>
        </mxCell>
        <mxCell id="4_KpAReZ8NmwnhRcS0Nw-30" value="1.立项申请表" style="strokeWidth=2;html=1;shape=mxgraph.flowchart.document2;whiteSpace=wrap;size=0.25;" vertex="1" parent="1">
          <mxGeometry x="560" y="180" width="200" height="60" as="geometry"/>
        </mxCell>
        <mxCell id="4_KpAReZ8NmwnhRcS0Nw-31" value="1. 项目通讯录&lt;br&gt;&amp;nbsp;2.项目组成员表&lt;br&gt;3.实验局参数" style="strokeWidth=2;html=1;shape=mxgraph.flowchart.document2;whiteSpace=wrap;size=0.25;" vertex="1" parent="1">
          <mxGeometry x="560" y="370" width="200" height="80" as="geometry"/>
        </mxCell>
        <mxCell id="4_KpAReZ8NmwnhRcS0Nw-33" value="1. 交付计划进度监控表&lt;br&gt;" style="strokeWidth=2;html=1;shape=mxgraph.flowchart.document2;whiteSpace=wrap;size=0.25;" vertex="1" parent="1">
          <mxGeometry x="560" y="470" width="200" height="130" as="geometry"/>
        </mxCell>
        <mxCell id="4_KpAReZ8NmwnhRcS0Nw-34" value="1. 项目问题跟踪表" style="strokeWidth=2;html=1;shape=mxgraph.flowchart.document2;whiteSpace=wrap;size=0.25;" vertex="1" parent="1">
          <mxGeometry x="560" y="620" width="200" height="60" as="geometry"/>
        </mxCell>
        <mxCell id="4_KpAReZ8NmwnhRcS0Nw-29" value="1. 实验局建设信息收集表" style="strokeWidth=2;html=1;shape=mxgraph.flowchart.document2;whiteSpace=wrap;size=0.25;" vertex="1" parent="1">
          <mxGeometry x="560" y="90" width="200" height="60" as="geometry"/>
        </mxCell>
        <mxCell id="4_KpAReZ8NmwnhRcS0Nw-44" value="" style="endArrow=none;dashed=1;html=1;" edge="1" parent="1">
          <mxGeometry width="50" height="50" relative="1" as="geometry">
            <mxPoint x="33" y="160" as="sourcePoint"/>
            <mxPoint x="800" y="160" as="targetPoint"/>
            <Array as="points"/>
          </mxGeometry>
        </mxCell>
        <mxCell id="4_KpAReZ8NmwnhRcS0Nw-45" value="" style="endArrow=none;dashed=1;html=1;" edge="1" parent="1">
          <mxGeometry width="50" height="50" relative="1" as="geometry">
            <mxPoint x="33" y="250" as="sourcePoint"/>
            <mxPoint x="800" y="250" as="targetPoint"/>
            <Array as="points"/>
          </mxGeometry>
        </mxCell>
        <mxCell id="4_KpAReZ8NmwnhRcS0Nw-46" value="" style="endArrow=none;dashed=1;html=1;" edge="1" parent="1">
          <mxGeometry width="50" height="50" relative="1" as="geometry">
            <mxPoint x="33" y="340" as="sourcePoint"/>
            <mxPoint x="800" y="340" as="targetPoint"/>
            <Array as="points"/>
          </mxGeometry>
        </mxCell>
        <mxCell id="4_KpAReZ8NmwnhRcS0Nw-47" value="" style="endArrow=none;dashed=1;html=1;" edge="1" parent="1">
          <mxGeometry width="50" height="50" relative="1" as="geometry">
            <mxPoint x="33" y="460" as="sourcePoint"/>
            <mxPoint x="800" y="460" as="targetPoint"/>
            <Array as="points"/>
          </mxGeometry>
        </mxCell>
        <mxCell id="4_KpAReZ8NmwnhRcS0Nw-48" value="" style="endArrow=none;dashed=1;html=1;" edge="1" parent="1">
          <mxGeometry width="50" height="50" relative="1" as="geometry">
            <mxPoint x="33" y="604.5" as="sourcePoint"/>
            <mxPoint x="800" y="604.5" as="targetPoint"/>
            <Array as="points"/>
          </mxGeometry>
        </mxCell>
        <mxCell id="4_KpAReZ8NmwnhRcS0Nw-49" value="" style="endArrow=none;dashed=1;html=1;" edge="1" parent="1">
          <mxGeometry width="50" height="50" relative="1" as="geometry">
            <mxPoint x="33" y="700" as="sourcePoint"/>
            <mxPoint x="800" y="700" as="targetPoint"/>
            <Array as="points"/>
          </mxGeometry>
        </mxCell>
      </root>
    </mxGraphModel>
  </diagram>
</mxfile>
